<mxfile host="app.diagrams.net" modified="2023-02-08T05:58:04.261Z" agent="5.0 (Windows NT 10.0; Win64; x64) AppleWebKit/537.36 (KHTML, like Gecko) Chrome/109.0.0.0 Safari/537.36" etag="cw092ICoB7KMe0We2enR" version="20.8.18" type="github">
  <diagram id="C5RBs43oDa-KdzZeNtuy" name="Page-1">
    <mxGraphModel dx="880" dy="427" grid="1" gridSize="10" guides="1" tooltips="1" connect="1" arrows="1" fold="1" page="1" pageScale="1" pageWidth="827" pageHeight="1169" math="0" shadow="0">
      <root>
        <mxCell id="WIyWlLk6GJQsqaUBKTNV-0" />
        <mxCell id="WIyWlLk6GJQsqaUBKTNV-1" parent="WIyWlLk6GJQsqaUBKTNV-0" />
        <mxCell id="l9lw8TCdQc_dWnHDpE0C-0" value="Start" style="ellipse;whiteSpace=wrap;html=1;" vertex="1" parent="WIyWlLk6GJQsqaUBKTNV-1">
          <mxGeometry x="250" y="20" width="120" height="30" as="geometry" />
        </mxCell>
        <mxCell id="l9lw8TCdQc_dWnHDpE0C-1" value="" style="endArrow=classic;html=1;rounded=0;exitX=0.5;exitY=1;exitDx=0;exitDy=0;" edge="1" parent="WIyWlLk6GJQsqaUBKTNV-1">
          <mxGeometry width="50" height="50" relative="1" as="geometry">
            <mxPoint x="310" y="331" as="sourcePoint" />
            <mxPoint x="310" y="361" as="targetPoint" />
          </mxGeometry>
        </mxCell>
        <mxCell id="l9lw8TCdQc_dWnHDpE0C-2" value="Input Number 1, Number 2" style="shape=parallelogram;perimeter=parallelogramPerimeter;whiteSpace=wrap;html=1;fixedSize=1;" vertex="1" parent="WIyWlLk6GJQsqaUBKTNV-1">
          <mxGeometry x="210" y="80" width="200" height="30" as="geometry" />
        </mxCell>
        <mxCell id="l9lw8TCdQc_dWnHDpE0C-3" value="" style="endArrow=classic;html=1;rounded=0;exitX=0.5;exitY=1;exitDx=0;exitDy=0;" edge="1" parent="WIyWlLk6GJQsqaUBKTNV-1" target="l9lw8TCdQc_dWnHDpE0C-4">
          <mxGeometry width="50" height="50" relative="1" as="geometry">
            <mxPoint x="311" y="110" as="sourcePoint" />
            <mxPoint x="311" y="140" as="targetPoint" />
          </mxGeometry>
        </mxCell>
        <mxCell id="l9lw8TCdQc_dWnHDpE0C-4" value="&lt;font style=&quot;font-size: 11px;&quot;&gt;Is Number 1 greater than Number 2?&lt;/font&gt;" style="rhombus;whiteSpace=wrap;html=1;" vertex="1" parent="WIyWlLk6GJQsqaUBKTNV-1">
          <mxGeometry x="230" y="140" width="160" height="80" as="geometry" />
        </mxCell>
        <mxCell id="l9lw8TCdQc_dWnHDpE0C-5" value="" style="endArrow=classic;html=1;rounded=0;exitX=1;exitY=0.5;exitDx=0;exitDy=0;" edge="1" parent="WIyWlLk6GJQsqaUBKTNV-1" source="l9lw8TCdQc_dWnHDpE0C-4">
          <mxGeometry width="50" height="50" relative="1" as="geometry">
            <mxPoint x="390" y="220" as="sourcePoint" />
            <mxPoint x="600" y="240" as="targetPoint" />
            <Array as="points">
              <mxPoint x="600" y="180" />
            </Array>
          </mxGeometry>
        </mxCell>
        <mxCell id="l9lw8TCdQc_dWnHDpE0C-6" value="Display Number&amp;nbsp; 1" style="shape=parallelogram;perimeter=parallelogramPerimeter;whiteSpace=wrap;html=1;fixedSize=1;" vertex="1" parent="WIyWlLk6GJQsqaUBKTNV-1">
          <mxGeometry x="540" y="240" width="120" height="60" as="geometry" />
        </mxCell>
        <mxCell id="l9lw8TCdQc_dWnHDpE0C-7" value="" style="endArrow=classic;html=1;rounded=0;" edge="1" parent="WIyWlLk6GJQsqaUBKTNV-1">
          <mxGeometry width="50" height="50" relative="1" as="geometry">
            <mxPoint x="234" y="180" as="sourcePoint" />
            <mxPoint x="54" y="240" as="targetPoint" />
            <Array as="points">
              <mxPoint x="54" y="180" />
            </Array>
          </mxGeometry>
        </mxCell>
        <mxCell id="l9lw8TCdQc_dWnHDpE0C-9" value="Display Number&amp;nbsp; 2" style="shape=parallelogram;perimeter=parallelogramPerimeter;whiteSpace=wrap;html=1;fixedSize=1;" vertex="1" parent="WIyWlLk6GJQsqaUBKTNV-1">
          <mxGeometry y="240" width="120" height="60" as="geometry" />
        </mxCell>
        <mxCell id="l9lw8TCdQc_dWnHDpE0C-12" value="" style="endArrow=none;html=1;rounded=0;fontSize=11;entryX=0.5;entryY=1;entryDx=0;entryDy=0;exitX=0.417;exitY=1;exitDx=0;exitDy=0;exitPerimeter=0;" edge="1" parent="WIyWlLk6GJQsqaUBKTNV-1" source="l9lw8TCdQc_dWnHDpE0C-9" target="l9lw8TCdQc_dWnHDpE0C-6">
          <mxGeometry width="50" height="50" relative="1" as="geometry">
            <mxPoint x="50" y="310" as="sourcePoint" />
            <mxPoint x="600" y="330" as="targetPoint" />
            <Array as="points">
              <mxPoint x="50" y="330" />
              <mxPoint x="300" y="330" />
              <mxPoint x="600" y="330" />
            </Array>
          </mxGeometry>
        </mxCell>
        <mxCell id="l9lw8TCdQc_dWnHDpE0C-13" value="End" style="ellipse;whiteSpace=wrap;html=1;" vertex="1" parent="WIyWlLk6GJQsqaUBKTNV-1">
          <mxGeometry x="252" y="360" width="120" height="30" as="geometry" />
        </mxCell>
        <mxCell id="l9lw8TCdQc_dWnHDpE0C-15" value="" style="endArrow=classic;html=1;rounded=0;fontSize=11;exitX=0.5;exitY=1;exitDx=0;exitDy=0;entryX=0.5;entryY=0;entryDx=0;entryDy=0;" edge="1" parent="WIyWlLk6GJQsqaUBKTNV-1" source="l9lw8TCdQc_dWnHDpE0C-0" target="l9lw8TCdQc_dWnHDpE0C-2">
          <mxGeometry width="50" height="50" relative="1" as="geometry">
            <mxPoint x="290" y="220" as="sourcePoint" />
            <mxPoint x="340" y="170" as="targetPoint" />
          </mxGeometry>
        </mxCell>
      </root>
    </mxGraphModel>
  </diagram>
</mxfile>
